<?xml version="1.0" standalone="no"?>
<!DOCTYPE svg PUBLIC "-//W3C//DTD SVG 20010904//EN"
 "http://www.w3.org/TR/2001/REC-SVG-20010904/DTD/svg10.dtd">
<svg version="1.0" xmlns="http://www.w3.org/2000/svg"
 width="64.000000pt" height="64.000000pt" viewBox="0 0 64.000000 64.000000"
 preserveAspectRatio="xMidYMid meet">

<g transform="translate(0.000000,64.000000) scale(0.100000,-0.100000)"
fill="#000000" stroke="none">
<path d="M132 568 c-17 -17 -17 -479 0 -496 17 -17 359 -17 376 0 17 17 17
479 0 496 -17 17 -359 17 -376 0z m368 -18 c0 -6 -67 -10 -180 -10 -113 0
-180 4 -180 10 0 6 67 10 180 10 113 0 180 -4 180 -10z m0 -200 l0 -170 -38 0
c-21 0 -43 -5 -50 -12 -7 -7 -12 -29 -12 -50 l0 -38 -130 0 -130 0 0 220 0
220 180 0 180 0 0 -170z m0 -230 l0 -40 -40 0 -40 0 0 40 0 40 40 0 40 0 0
-40z"/>
<path d="M262 438 c-26 -27 -33 -30 -47 -18 -8 7 -18 10 -22 7 -9 -10 17 -37
36 -37 21 0 86 66 74 73 -5 3 -23 -8 -41 -25z"/>
<path d="M340 450 c0 -6 27 -10 60 -10 33 0 60 4 60 10 0 6 -27 10 -60 10 -33
0 -60 -4 -60 -10z"/>
<path d="M340 410 c0 -6 27 -10 60 -10 33 0 60 4 60 10 0 6 -27 10 -60 10 -33
0 -60 -4 -60 -10z"/>
<path d="M262 278 c-26 -27 -33 -30 -47 -18 -8 7 -18 10 -22 7 -9 -10 17 -37
36 -37 21 0 86 66 74 73 -5 3 -23 -8 -41 -25z"/>
<path d="M340 290 c0 -6 27 -10 60 -10 33 0 60 4 60 10 0 6 -27 10 -60 10 -33
0 -60 -4 -60 -10z"/>
<path d="M340 250 c0 -6 27 -10 60 -10 33 0 60 4 60 10 0 6 -27 10 -60 10 -33
0 -60 -4 -60 -10z"/>
</g>
</svg>
